PathFileType	4	(X/Y/Z)	C:\Users\WrightLab\Desktop\Jo\P1.2boxCal1-Unnamed.trc
DataRate	CameraRate	NumFrames	NumMarkers	Units	OrigDataRate	OrigDataStartFrame	OrigNumFrames
100.00	100.00	       41	0	mm	100.00	414	       827
Frame#	Time	
		

414	4.130	-670.82239	349.68665	1001.07465	89.54275	323.15222	-464.45456	-190.97060	360.37482	1306.81689	-213.21564	355.07123	982.98273	-655.51227	354.42816	1314.36145	-413.55795	312.08301	-187.04620				51.28233	332.07794	-141.32173	-383.16110	306.40875	-523.54163	
415	4.140	-670.82556	349.52631	1000.85767	89.36455	323.09543	-464.56671	-190.89165	360.34415	1306.68201	-213.33168	355.22110	982.96210	-655.59375	354.57983	1314.32275	-413.55237	312.08115	-187.04942				51.06432	332.43839	-141.58305	-383.16977	306.41132	-523.54187	
416	4.150	-670.58929	349.83115	1000.37274	89.52982	323.07916	-464.62723	-190.87834	360.32303	1306.69897	-213.35384	355.20935	982.96991	-655.75763	354.35803	1314.25989	-413.37027	311.87735	-187.00948				51.05672	332.45016	-141.61536	-383.60110	306.70398	-523.89636	
417	4.160	-670.56268	349.89709	1000.98627	89.78516	323.18677	-464.40405	-190.98624	360.37015	1306.81018	-213.18561	355.07230	982.99921	-655.50525	354.39862	1314.45972	-413.56104	312.07993	-187.05017				50.84656	332.45462	-141.60774	-383.17844	306.41211	-523.54327	
418	4.170	-670.79755	349.66162	1000.43024	89.52987	323.10599	-464.56323	-190.97760	360.35757	1306.80481	-213.19496	355.07925	982.98975	-655.76410	354.25772	1314.65515	-413.55661	312.08740	-187.04602				50.92150	332.32938	-141.45802	-383.15765	306.40274	-523.54480	
419	4.180	-670.84344	349.53226	1000.86017	89.58146	323.15439	-464.45444	-190.89317	360.35028	1306.69678	-213.21025	355.09399	982.99890	-655.78302	354.25742	1314.65186	-413.38348	311.87247	-187.01300				51.04668	332.11087	-141.33263	-383.62656	306.71246	-523.89642	
420	4.190	-670.84479	349.53326	1000.85803	89.65322	323.11209	-464.56488	-190.98610	360.36530	1306.79675	-213.34283	355.21277	982.96759	-655.52570	354.25748	1313.71619	-413.37271	311.87326	-187.00883				51.22982	332.20044	-141.49298	-383.16858	306.40811	-523.54370	
421	4.200	-670.83795	349.53244	1000.86163	89.38589	323.06912	-464.63229	-190.91080	360.31549	1306.69519	-213.31252	355.21780	982.95844	-655.60950	354.31143	1313.97131	-413.37961	311.87003	-187.01167				50.86348	332.47153	-141.61079	-383.16507	306.40005	-523.54828	
422	4.210	-670.80835	349.66037	1000.42889	89.60209	323.13345	-464.50720	-190.96335	360.40128	1306.81323	-213.21211	355.06656	982.98553	-655.74713	354.27399	1314.66138	-413.54678	312.07724	-187.04886				50.84356	332.49210	-141.62091	-383.17328	306.41156	-523.54248	
423	4.220	-670.81189	349.64743	1000.42493	89.59456	323.11737	-464.54459	-190.98402	360.38937	1306.81006	-213.17522	355.07492	982.99884	-655.59082	354.47205	1314.72168	-413.55923	312.07550	-187.05038				51.26420	332.05963	-141.30663	-383.16284	306.40546	-523.54419	
424	4.230	-670.61877	349.84094	1000.37518	89.46259	323.12067	-464.51932	-190.99922	360.43631	1306.63062	-213.19107	355.06824	982.98181	-655.49408	354.44067	1314.36169	-413.56250	312.08774	-187.04384				51.05277	332.10117	-141.35696	-383.17157	306.41895	-523.53723	
425	4.240	-670.56409	349.88950	1000.98132	89.52309	323.08432	-464.61411	-190.89751	360.32129	1306.69580	-213.19336	355.06616	982.99054	-655.51758	354.27411	1313.72583	-413.50922	311.91495	-187.06496				51.06114	332.10272	-141.35196	-383.47601	306.34625	-523.90790	
426	4.250	-670.84167	349.53409	1000.86255	89.53468	323.12817	-464.51089	-190.90303	360.32971	1306.69299	-213.57899	355.06317	983.11505	-655.74506	354.36432	1314.26367	-413.50754	311.91241	-187.06181				50.92148	332.32254	-141.45776	-383.17545	306.40375	-523.54816	
427	4.260	-670.57751	349.89587	1000.98218	89.63750	323.08368	-464.63068	-190.89055	360.33041	1306.68457	-213.58997	355.06482	983.08624	-655.75751	354.36862	1314.26477	-413.40570	312.02173	-186.98531				51.06870	332.44684	-141.59245	-383.16556	306.42868	-523.52942	
428	4.270	-670.82819	349.68918	1001.07397	89.62092	323.02887	-464.75931	-190.99799	360.38593	1306.82605	-213.22940	355.07687	982.99115	-655.74683	354.36008	1314.26343	-413.41129	312.00790	-186.99248				51.11256	332.27527	-141.44510	-383.61304	306.70685	-523.89709	
429	4.280	-670.79010	349.78549	1000.62982	89.52879	323.12405	-464.51996	-190.95248	360.39407	1306.81982	-213.20064	355.07065	982.99261	-655.59894	354.29764	1313.96594	-413.40842	311.99869	-186.99681				50.86490	332.48068	-141.62033	-383.16156	306.40347	-523.54523	
430	4.290	-670.60461	349.84607	1000.37689	89.62733	323.19635	-464.36029	-190.96843	360.38147	1306.82666	-213.20795	355.06610	982.97900	-655.97784	354.22049	1314.62439	-413.54672	312.07974	-187.04713				50.84941	332.48215	-141.61169	-383.15231	306.39783	-523.54688	
431	4.300	-670.56219	350.00595	1000.54541	89.54923	323.15094	-464.45844	-190.97522	360.37415	1306.81506	-213.20967	355.09177	982.99054	-655.74225	354.36185	1314.26172	-413.49265	311.91925	-187.06163				51.05682	332.44354	-141.57207	-383.16962	306.40283	-523.54742	
432	4.310	-670.56323	349.98047	1000.53046	89.70135	323.09207	-464.61902	-191.08458	360.50540	1306.75488	-213.19521	355.08594	982.99664	-655.63367	354.23181	1314.30444	-413.48978	311.91534	-187.06329				51.06412	332.44797	-141.59174	-383.16846	306.40863	-523.54333	
433	4.320	-670.58691	349.84286	1000.37854	89.58478	323.21960	-464.29922	-190.95874	360.36826	1306.81226	-213.23390	355.06284	982.98901	-655.60400	354.22607	1314.36951	-413.49756	311.90869	-187.06822				51.23097	332.20563	-141.47844	-383.48224	306.36041	-523.89990	
434	4.330	-670.60535	349.83286	1000.37201	89.56190	323.22809	-464.27597	-190.70909	360.54752	1306.66028	-213.43837	354.90182	983.13928	-655.66010	354.23135	1314.30286	-413.40909	312.00732	-186.98976				51.20211	332.19437	-141.48222	-383.16672	306.40570	-523.54486	
435	4.340	-670.80884	349.66989	1000.43341	89.53962	323.08823	-464.60696	-190.96126	360.37112	1306.79517	-213.20305	355.05759	982.99158	-655.75781	354.27121	1314.65881	-413.48972	311.92850	-187.05173				51.25965	332.06488	-141.31870	-383.18484	306.42783	-523.53430	
436	4.350	-670.82422	349.53091	1000.86420	89.46841	323.14072	-464.47229	-190.97275	360.38580	1306.81250	-213.22633	355.06894	983.00024	-655.65894	354.22284	1314.29724	-413.40424	312.01050	-187.35004				50.90965	332.31573	-141.46507	-383.16455	306.41306	-523.53955	
437	4.360	-670.60254	349.83600	1000.37189	89.58536	323.13113	-464.51053	-190.91672	360.38760	1306.81543	-213.20821	355.06198	982.98547	-655.49707	354.18289	1314.01489	-413.50537	311.90790	-187.06412				51.02420	332.25439	-141.50209	-383.17636	306.40945	-523.54456	
438	4.370	-670.81677	349.53027	1000.86145	89.52368	323.16504	-464.42148	-190.61603	360.48816	1306.57349	-213.21915	355.07449	982.97675	-655.51190	354.52322	1314.07458	-413.50287	311.90234	-187.06651				51.03850	332.08624	-141.34921	-383.49905	306.38153	-523.88971	
439	4.380	-670.80823	349.69803	1001.07703	89.63009	323.13681	-464.50287	-190.88272	360.32700	1306.68811	-213.20784	355.08157	983.00055	-655.49591	354.53543	1314.07861	-413.40686	312.01358	-186.99336				51.05503	332.10327	-141.34267	-383.16568	306.41721	-523.53705	
440	4.390	-670.80994	349.68530	1001.07166	89.55537	323.03622	-464.73315	-190.62868	360.50266	1306.54077	-213.20805	355.08142	982.99121	-655.77026	354.25174	1314.65540	-413.49847	311.92886	-187.05653				51.00776	332.25781	-141.51686	-383.17007	306.41708	-523.53809	
441	4.400	-670.82349	349.52505	1000.85889	89.53251	323.12982	-464.50671	-190.91727	360.30676	1306.69299	-213.32393	355.20038	982.95526	-655.75092	354.33383	1314.25330	-413.37622	311.86423	-187.01663				51.05915	332.44171	-141.59622	-383.17566	306.41061	-523.54364	
442	4.410	-670.62067	349.84857	1000.37292	89.51502	323.04932	-464.69656	-190.92827	360.29996	1306.68152	-213.33725	355.21249	982.95856	-655.58624	354.57047	1314.32532	-413.55289	312.08514	-187.04623				51.06157	332.43317	-141.59935	-383.16119	306.41727	-523.53601	
443	4.420	-670.84222	349.54654	1000.86414	89.54421	323.11716	-464.53848	-190.96764	360.39908	1306.82483	-213.30806	355.20428	982.96637	-655.59424	354.21381	1314.36987	-413.50223	311.92575	-187.05838				51.07074	332.44315	-141.57672	-383.48215	306.36932	-523.89398	
444	4.430	-670.62756	349.72824	1000.81006	89.65785	323.18790	-464.38452	-190.88115	360.33179	1306.69690	-213.58842	355.04285	983.11285	-655.74927	354.34784	1314.25757	-413.41434	312.00818	-186.99272				50.84752	332.48285	-141.61162	-383.17648	306.43060	-523.53058	
445	4.440	-670.83044	349.54102	1000.86475	89.43010	323.05078	-464.68188	-190.95824	360.38083	1306.81812	-213.34723	355.20636	982.95819	-655.52295	354.50302	1314.06714	-413.49570	311.91415	-187.06187				51.13430	332.28018	-141.43803	-383.17834	306.41852	-523.53900	
446	4.450	-670.60468	349.71634	1000.80762	89.50396	323.14258	-464.47244	-190.92427	360.32736	1306.70398	-213.33044	355.21576	982.96802	-655.74408	354.37808	1314.26880	-413.55215	312.08081	-187.04581				50.86332	332.47464	-141.61153	-383.17389	306.41415	-523.54089	
447	4.460	-670.82361	349.53223	1000.86267	89.55897	323.15149	-464.45847	-190.93924	360.33029	1306.70227	-213.32091	355.21445	982.96881	-655.74139	354.37665	1314.26672	-413.40283	312.01096	-186.98674				50.84449	332.49500	-141.63382	-383.59982	306.70160	-523.89764	
448	4.470	-670.60669	349.71851	1000.81079	89.63478	323.13696	-464.50308	-190.63124	360.47055	1306.53345	-213.48094	354.89929	983.12115	-655.59436	354.31168	1313.97339	-413.49081	311.91321	-187.06763				51.05744	332.10211	-141.33722	-383.61319	306.71030	-523.89484	
449	4.480	-670.83044	349.53653	1000.86035	89.59483	323.15366	-464.45801	-191.05098	360.49634	1306.75012	-213.19843	355.06564	982.98383	-655.67780	354.30789	1314.00806	-413.48941	311.90286	-187.06895				51.02279	332.25507	-141.51697	-383.18546	306.41507	-523.54291	
450	4.490	-670.62073	349.71881	1000.81104	89.53147	323.00940	-464.79407	-190.98134	360.36353	1306.80701	-213.22243	355.06885	982.99744	-655.51947	354.17139	1314.00806	-413.54782	312.08383	-187.04567				51.05961	332.10474	-141.34871	-383.16177	306.41888	-523.53503	
451	4.500	-670.81061	349.54611	1000.86792	89.57599	323.16205	-464.43546	-190.88635	360.32065	1306.69275	-213.21620	355.08365	982.99066	-655.69373	354.31018	1314.00842	-413.46005	312.17596	-187.33266				51.01923	332.24646	-141.51047	-383.17001	306.41660	-523.53839	
452	4.510	-670.61218	349.73074	1000.81659	89.63232	323.06076	-464.68469	-190.69223	360.53860	1306.66797	-213.22351	355.08069	982.99835	-655.65698	354.23114	1314.29907	-413.49637	311.91565	-187.05830				51.26078	332.05814	-141.31039	-383.17352	306.41223	-523.54211	
453	4.520	-670.78107	349.79343	1000.63074	89.64185	323.06149	-464.68420	-190.98463	360.45331	1306.64502	-213.47073	354.91541	983.13092	-655.67615	354.30847	1314.00891	-413.58792	311.95981	-187.09125				51.12274	332.28131	-141.44371	-383.17612	306.40982	-523.54425	
454	4.530	-670.80774	349.68546	1001.07257	89.56255	323.13409	-464.50046	-190.61382	360.49692	1306.55896	-213.20895	355.08691	982.99408	-655.50769	354.17679	1314.01038	-413.45346	312.17410	-187.33496				51.00241	332.23956	-141.51582	-383.17053	306.39853	-523.55048	
